<svg t="1577084225051" class="icon" viewBox="0 0 1024 1024" version="1.1" xmlns="http://www.w3.org/2000/svg" p-id="1335" width="64" height="64"><path d="M182.354581 241.426168C170.941935 167.404181 186.886606 118.222452 230.201806 93.877677 266.619871 73.407587 348.506839 40.794839 442.965884 26.723097 517.010994 15.690323 598.779045 16.043768 672.437677 42.565368c167.608981 60.349935 104.183742 311.831123 135.89471 353.6896 21.143948 27.905652 35.073652 42.258168 41.792413 43.057548l-94.188181 49.85889c-6.880619-8.935226-17.857239-39.909574-32.926554-92.916438-22.607277-79.508645-158.604387-229.458581-281.781678-214.815381-82.118194 9.761032-168.408361 29.758761-258.870503 59.986581z" fill="#C40000" p-id="1336"></path><path d="M755.933316 489.17471c-6.880619-8.938529-17.857239-39.912877-32.926555-92.919742-22.607277-79.508645-158.604387-229.458581-281.781677-214.815381-82.118194 9.761032-168.408361 29.758761-258.870503 59.986581-3.726039-24.153187-4.538632-45.66049-2.434478-64.525213-0.198194 11.6736 1.222194 24.265497 4.261162 37.778993 52.686452-69.126606 127.009032-109.396232 222.967741-120.802271 143.934761-17.11071 298.661161 14.6432 350.184878 134.110968 8.439742 19.574916 19.244594 43.913084 13.130322 69.040723-6.110968 25.130942-22.646916 53.191845-13.130322 81.877058 6.342194 19.125677 14.309574 51.282581 23.902142 96.470709l68.885471-36.064619-94.188181 49.85889z" fill="#9E0000" p-id="1337"></path><path d="M674.670658 36.348697C746.928723 62.364903 782.864516 122.285419 796.123665 212.199226l0.396387 2.735071c3.577394 25.30271 4.954839 44.692645 6.276129 82.960516l0.872051 27.007174c1.456723 41.521548 3.620335 58.298632 9.447226 66.695432l0.482271 0.667252 2.46751 3.237161c8.50911 11.098839 15.739871 19.809445 21.655948 26.108697l1.654916 1.734194 1.387355 1.407174c5.199277 5.176155 8.928619 7.855071 10.140903 7.997109l21.008516 2.500542-117.812851 62.364904-3.699613-4.8128c-7.016052-9.506684-16.853058-36.560103-30.201394-82.402271l-3.547664-12.340852c-11.343277-39.896361-51.556748-96.229574-101.164594-139.544774-57.377032-50.093419-119.147355-76.975071-173.482116-70.517265-81.655742 9.708181-167.506581 29.600206-257.555819 59.689291l-7.432258 2.484025-1.536-10.028593C164.368516 164.930065 181.333884 113.763097 226.961342 88.116852 268.288 64.888568 339.644284 39.361239 411.568723 25.408413c95.562323-18.537703 186.196232-16.750658 263.101935 10.940284z m161.250271 401.962942c-7.858374-6.827768-17.748232-18.31969-30.376464-34.812697l-2.79453-3.679794-0.677161-0.948025c-7.722942-11.244181-10.008774-28.226065-11.554684-71.871588l-0.852232-26.435716-0.475664-13.140232c-1.129703-28.903226-2.444387-46.235252-5.199278-66.632671l-0.93151-6.606451c-12.611716-85.613006-46.027148-141.338426-112.864619-165.40573-74.378735-26.779252-162.697084-28.520052-256.109006-10.398554-70.570116 13.688568-140.591897 38.740232-180.650116 61.255019-39.054039 21.953239-54.456981 65.849806-45.657188 133.034116 88.143277-28.975897 172.362323-48.243613 252.667046-57.789935 58.68511-6.976413 123.808206 21.365265 183.732025 73.685058 51.384981 44.864413 93.061781 103.248929 105.181317 145.883664l2.464206 8.588387c11.112052 38.426426 19.872206 64.072671 25.851045 76.162478l0.630916 1.242013 78.369033-41.485213-0.753136-0.644129z" fill="#4C3030" p-id="1338"></path><path d="M825.760206 499.520413m-75.871793 0a75.871794 75.871794 0 1 0 151.743587 0 75.871794 75.871794 0 1 0-151.743587 0Z" fill="#FFFFFF" p-id="1339"></path><path d="M867.294968 436.012594c20.678194 13.553135 34.337032 36.933368 34.337032 63.507819 0 41.901419-33.967071 75.871794-75.871794 75.871793-29.768671 0-55.533832-17.143742-67.960567-42.099612a75.495226 75.495226 0 0 0 41.534761 12.37058c41.904723 0 75.875097-33.970374 75.875097-75.875097 0-11.729755-2.665703-22.841806-7.419045-32.75809z" fill="#F9E5E5" p-id="1340"></path><path d="M825.760206 417.038865c45.551484 0 82.481548 36.930065 82.481549 82.481548 0 11.825548-2.497239 23.317471-7.26049 33.874581a6.606452 6.606452 0 1 1-12.043562-5.430504 68.991174 68.991174 0 0 0 6.087845-28.444077c0-38.254658-31.010684-69.268645-69.265342-69.268645-38.251355 0-69.265342 31.013987-69.265341 69.268645 0 38.251355 31.010684 69.265342 69.268645 69.265342 12.446555 0 24.404232-3.283406 34.90849-9.427407a6.606452 6.606452 0 1 1 6.672516 11.406039 82.118194 82.118194 0 0 1-41.58431 11.230968c-45.551484 0-82.478245-36.923458-82.478245-82.474942s36.930065-82.481548 82.481549-82.481548zM881.96129 541.795097a6.606452 6.606452 0 1 1 0 13.212903 6.606452 6.606452 0 0 1 0-13.212903z" fill="#4C3030" p-id="1341"></path><path d="M453.295071 1001.6768l-7.954168-4.036542-10.243303-5.271948c-51.024929-26.472052-86.039123-48.022297-105.035974-64.650736-21.180284-18.537703-40.514065-46.767071-58.004645-84.681497a112.104877 112.104877 0 0 1-2.444387 27.885833c-1.988542 9.295277-5.153032 18.590555-9.490168 27.885832-35.433703-29.048568-57.915458-57.684232-67.438658-85.90369-9.5232-28.219458-9.53311-66.213161-0.023123-113.98111-3.937445 7.901316-9.265548 16.08671-15.987613 24.542968-6.728671 8.459561-14.626684 16.919123-23.700645 25.378684l-2.444387-7.855071-2.371716-7.762581c-17.292387-56.993858-25.940232-86.280258-25.940232-108.55391 0-24.252284 12.915613-58.850271 38.746838-83.102555-2.302348-31.95871-3.451871-58.962581-3.451871-81.024825 0-33.088413 13.794271-49.294039 13.794271-81.024826 0-14.682839 45.303742-51.708697 135.90462-76.585291 39.906271-10.9568 72.91871-22.957419 146.085161-22.045729 73.166452 0.908387 106.208619 14.663019 146.121497 25.675975 90.581058 24.992206 135.868284 58.661987 135.868284 73.414193 0 31.879432 13.797574 47.797677 13.797574 80.796903 0 21.996181-1.149523 48.927381-3.448568 80.7936 25.827923 24.252284 38.743535 58.850271 38.743536 83.102555 0 22.9376-9.173058 53.941677-27.512568 113.703639l-0.802684 2.609548-2.444387 7.858375c-9.070658-8.459561-16.968671-16.919123-23.694039-25.378684-6.725368-8.456258-12.056774-16.641652-15.987613-24.542968 9.506684 47.767948 9.496774 85.761652-0.026426 113.98111s-32.004955 56.855123-67.438658 85.90369c-4.337135-9.295277-7.498323-18.590555-9.490167-27.885832a112.104877 112.104877 0 0 1-2.444387-27.885833c-17.490581 37.914426-36.824361 66.143794-58.004646 84.681497-19.931665 17.447639-57.492645 40.312568-112.679638 68.591484l-2.599639 1.3312-7.957471 4.036542z" fill="#F9E5E5" p-id="1342"></path><path d="M351.750606 906.263123c-22.861626-13.460645-49.085935-27.017084-79.696929-61.86942a112.104877 112.104877 0 0 1-2.444387 27.885832c-1.985239 9.295277-5.149729 18.590555-9.486864 27.885833-35.433703-29.048568-57.915458-57.680929-67.438658-85.900387-9.5232-28.219458-9.53311-66.216465-0.023123-113.984413-3.937445 7.904619-9.265548 16.08671-15.987613 24.542967-6.728671 8.459561-14.626684 16.919123-23.700645 25.378684l-2.444387-7.855071-2.371716-7.76258c-17.292387-56.993858-25.940232-86.280258-25.940232-108.55391 0-24.252284 12.915613-58.850271 38.746838-83.102555-2.302348-31.955406-3.451871-58.962581-3.451871-81.024826 0-33.088413 13.794271-49.294039 13.794271-81.021522 0-14.686142 45.303742-51.708697 135.90462-76.588594 39.906271-10.9568 72.91871-22.954116 146.085161-22.045729 73.166452 0.908387 106.208619 14.666323 146.121497 25.675974 90.581058 24.99551 135.868284 58.66529 135.868284 73.414194 0 31.882735 13.797574 47.797677 13.797574 80.796903 0 21.996181-1.149523 48.927381-3.448568 80.7936 11.700026 35.655019 14.151019 63.223742 11.700026 84.19262-1.635097 13.982555-7.101935 29.50111-16.397213 46.558967-15.581316-6.831071-46.727432-23.155613-50.664877-31.063535 0 49.753187-8.347252 145.216413-30.455742 177.274219-6.071329-13.001497-24.050787-48.326194-23.736981-56.462039-17.490581 37.917729-43.004697 78.008981-84.995303 117.594839-27.994839 26.392774-60.591071 47.341832-97.788697 62.843871-52.455226-16.096619-86.303381-28.632361-101.544465-37.603922z" fill="#FFFFFF" p-id="1343"></path><path d="M154.472052 732.655484l-9.358039-30.957832-4.578271-15.36991c-10.768516-36.527071-11.713239-43.404387-11.713239-56.848516 0-25.910503 14.53089-60.954426 36.6592-81.73502a6.606452 6.606452 0 0 0 2.06782-5.291767l-0.673858-9.711484-0.406297-6.299252c-1.569032-24.909626-2.351897-46.426839-2.351897-64.538426 0-12.618323 1.569032-21.130735 6.160516-37.494916l1.922478-6.837677 0.984361-3.646761c3.408929-12.948645 4.726916-21.520516 4.726916-33.042168 0-1.618581 2.166916-5.394168 6.66591-10.097961 5.503174-5.760826 13.754632-12.218632 24.212645-18.775536 24.15649-15.14529 57.482735-29.382194 97.313032-40.5504l25.401806-7.111845 5.020904-1.364232c40.467819-10.867613 68.608-14.725781 116.689755-14.127897 47.7184 0.594581 74.596748 5.209187 118.077109 17.794477l16.582194 4.865652 5.658426 1.625187 4.129032 1.156129c41.448877 11.435768 75.851974 25.415019 100.295845 39.863329 10.517471 6.216671 18.735897 12.281394 24.179613 17.688774 4.452748 4.416413 6.540387 7.934348 6.540387 9.490168 0 12.714116 1.572335 21.735226 5.783948 36.943277l1.367536 4.849136c4.974658 17.437729 6.64609 25.996387 6.64609 39.00449 0 21.82111-1.142916 48.597058-3.435355 80.317936a6.606452 6.606452 0 0 0 2.071123 5.291767c22.131613 20.77729 36.6592 55.824516 36.6592 81.73502l-0.019819 2.708645-0.062762 2.361806c-0.498787 14.051923-3.772284 26.769342-20.628645 81.992671l-6.56351 21.431329a213.533729 213.533729 0 0 1-15.402941-17.259354c-6.447897-8.116026-11.528258-15.911639-15.244388-23.376929-3.435355-6.903742-13.899974-3.329652-12.393703 4.231432 9.301884 46.734039 9.291974 83.624465 0.194891 110.58209-8.469471 25.094606-27.96511 50.88289-58.615742 77.239329a119.457858 119.457858 0 0 1-5.592362-18.491458c-1.872929-8.763458-2.642581-17.507097-2.302348-26.250735 0.277471-7.220852-9.572748-9.582658-12.601807-3.022452-17.130529 37.138168-35.955613 64.62431-56.353032 82.481548-19.422968 16.995097-56.607381 39.632103-111.345135 67.683097l-2.596336 1.327897-4.948232 2.510452-4.964748-2.520362-10.210271-5.252129-4.842529-2.526968-4.746736-2.490632c-45.383019-23.948387-76.813213-43.586065-94.118813-58.731355-20.400723-17.857239-39.225806-45.343381-56.356335-82.481548-3.029058-6.560206-12.882581-4.195097-12.601807 3.022452a105.498426 105.498426 0 0 1-2.302348 26.250735 119.457858 119.457858 0 0 1-5.592361 18.491458c-15.934761-13.701781-28.86689-27.261523-38.799691-40.659406a6.606452 6.606452 0 1 0-10.613264 7.871587c11.99071 16.172594 27.925471 32.388129 47.787767 48.673032a6.606452 6.606452 0 0 0 10.173936-2.315561c4.545239-9.73791 7.868284-19.505548 9.962529-29.299613 0.327019-1.512877 0.621006-3.029058 0.885265-4.545239 14.937187 27.889135 31.165935 49.538477 48.755612 64.93151 19.495639 17.067768 54.879794 38.845935 106.344052 65.54591l10.263123 5.281858 7.9872 4.053058a6.606452 6.606452 0 0 0 5.978838 0l7.957471-4.036542 7.703123-3.957265 7.438864-3.864774c48.851406-25.553755 82.62689-46.502813 101.501523-63.022245 17.586374-15.393032 33.815123-37.042374 48.75231-64.93151 0.264258 1.516181 0.561548 3.032361 0.885264 4.545239 2.094245 9.794065 5.41729 19.561703 9.959226 29.299613a6.606452 6.606452 0 0 0 10.173935 2.312258c36.315665-29.765368 59.540645-59.349058 69.513084-88.896413 7.762581-23.003665 9.473652-51.860645 5.235613-86.62049 6.791432 8.449652 14.696052 16.876181 23.710555 25.279587a6.606452 6.606452 0 0 0 10.811458-2.870504l2.444387-7.85507 11.729755-38.396697c15.343484-50.727639 16.879484-59.342452 16.879484-76.433342 0-28.572903-15.003252-65.654916-38.538736-89.154065l0.445936-6.500748 0.416206-6.362013c1.585548-25.163974 2.384929-46.938839 2.384929-65.327897 0-14.051923-1.744103-23.456206-6.63618-40.804748l-0.865445-3.045574c-4.667458-16.377394-6.295948-24.777497-6.295949-36.946581 0-22.41569-56.941006-56.300181-138.246606-79.095742l-6.150607-1.714374-7.0656-2.031484-9.813884-2.887019c-47.900077-14.137806-76.126142-19.330477-127.236954-19.968-52.442013-0.650735-82.204077 3.924232-128.052852 16.707716l-18.868026 5.298374-0.997574 0.277471C224.269213 320.21471 164.698839 357.567587 164.698839 380.881755c0 11.594323-1.509574 19.87551-5.731097 34.964645l-0.914994 3.233858c-5.275252 18.590555-7.148181 28.245884-7.14818 42.823019l0.016516 4.683975 0.049548 4.822709c0.264258 19.578219 1.327897 42.545548 3.181007 68.9152-23.122581 23.086245-38.010219 59.282994-38.525523 87.644491L115.612903 630.651871l0.026426 2.761497c0.29729 17.067768 3.237161 27.420077 26.194581 103.093677l2.378322 7.77249 2.454297 7.8848a6.606452 6.606452 0 0 0 10.811458 2.870504c9.017806-8.403406 16.919123-16.829935 23.710555-25.279587-2.460903 20.169497-2.913445 38.347148-1.351019 54.536258a6.606452 6.606452 0 0 0 13.150142-1.268439c-2.183432-22.633703-0.148645-49.796129 6.150606-81.454245 1.506271-7.564387-8.955045-11.135174-12.393703-4.231432-3.716129 7.46529-8.79649 15.260903-15.244387 23.376929a209.576465 209.576465 0 0 1-13.288878 15.095742l-2.114064 2.160309-1.625187-5.318193z" fill="#4C3030" p-id="1344"></path><path d="M201.493471 832.478968m-6.606452 0a6.606452 6.606452 0 1 0 13.212904 0 6.606452 6.606452 0 1 0-13.212904 0Z" fill="#4C3030" p-id="1345"></path><path d="M206.937187 265.004594h453.605574l2.05791 83.525367 1.460026 13.288878c4.862348 44.940387 7.600723 78.151019 8.221729 99.62529l0.330322 14.864516c0.495484 25.636335 0.155252 39.093677-4.872258 63.048671l-1.7408 8.112723c-5.787252 26.624-13.09729 51.949832-52.091871 51.949832-42.059974 0-77.034529-27.892439-84.123251-27.895742-25.269677-0.00991-83.15871 19.290839-113.122271 19.271019l-6.827768-0.003303c-23.882323-0.016516-14.032103-19.247897-40.827871-19.267716-6.811252-0.003303-46.255071 35.285058-97.379097 33.339458-48.838194-1.859716-70.077935-39.820387-75.098838-44.068335l-0.617704-3.428749c-2.695432-15.690323-2.441084-26.042632-1.562425-61.697651l0.161858-5.54942c0.990968-29.953652 4.162065-65.446813 9.500077-106.482787l2.926658-118.632051z" fill="#F6E6D0" p-id="1346"></path><path d="M660.542761 265.004594h32.216362l2.873806 116.557625 1.460026 13.288878c4.862348 44.940387 7.600723 78.151019 8.221729 99.62529l0.330322 14.864516c0.508697 26.277161 0.138735 39.757626-5.258735 64.865445-6.186942 28.781006-20.929239 49.465806-48.246916 49.465807-27.320981 0-56.452129-6.682426-78.170839 0.211406-21.71871 6.893832-34.337032-0.00991-41.422451-0.013213l-165.696413-0.099096c-6.659303-0.006606-20.843355 6.573419-40.101162 0.4096l-1.32129-0.442633c-19.934968-6.907045-50.654968-0.066065-77.93631-0.066064-26.888258 0-41.561187-20.18271-47.906684-48.161032l-0.990967-4.578271c-0.805987-3.762374-1.486452-7.078813-2.064516-10.140904 5.020903 4.251252 26.260645 42.211923 75.098838 44.071639 51.124026 1.9456 90.567845-33.342761 97.379097-33.339458 26.795768 0.019819 16.945548 19.2512 40.827871 19.267716l6.827768 0.003303c29.960258 0.019819 87.852594-19.280929 113.122271-19.271019 7.088723 0.003303 42.063277 27.895742 84.123251 27.895742 38.994581 0 46.304619-25.325832 52.091871-51.949832l1.354323-6.295949c5.5296-25.718916 5.780645-39.239019 5.219097-66.811045l-0.231226-10.491045c-0.515303-23.343897-3.765677-61.790142-9.741213-115.342039l-2.05791-83.525367z" fill="#DAC19C" p-id="1347"></path><path d="M199.098632 382.999123l-0.039638 0.515303 0.003303-0.257652 0.033032-0.257651z m2.883716-118.116749a4.954839 4.954839 0 0 1 4.954839-4.832619h485.821936a4.954839 4.954839 0 0 1 4.954838 4.832619l2.8672 116.339613 1.179252 10.692542c5.225703 48.038813 8.082994 82.977032 8.568568 104.880723l0.310503 15.112258 0.115613 8.519019c0.089187 10.553806-0.115613 16.298116-0.693678 23.585032l-0.148645 1.803562c-0.799381 9.017806-2.249497 18.11489-4.683974 29.431742-7.227458 33.630142-24.962477 53.380129-53.089445 53.380129-3.911019 0-7.97729-0.128826-12.535742-0.383175l-4.036542-0.247742-2.470813-0.168464-13.42431-1.040516c-22.960723-1.73089-33.154477-1.552516-43.483664 1.595458l-2.266013 0.69698c-11.693419 3.4816-21.015123 3.544361-31.826581 1.476542l-2.203251-0.449238c-1.222194-0.257652-3.564181-0.759742-4.257858-0.891871l-1.106581-0.194891a15.095742 15.095742 0 0 0-1.664826-0.188283l-0.320413-0.006607-165.699716-0.099097c-0.478968 0-1.123097 0.062761-1.991845 0.198194l-1.156129 0.198193-6.781523 1.327897c-11.326761 2.048-20.721135 1.981935-31.611871-1.529393l-2.698735-0.898478-1.294865-0.393084c-8.704-2.487329-18.692955-2.566606-39.490064-1.007484l-7.914529 0.627613-9.282065 0.703587-3.554271 0.227923a241.809342 241.809342 0 0 1-10.976619 0.429419l-2.599639 0.016517c-28.054297 0-45.769497-19.769806-53.026684-53.307459l-1.562425-7.326554c-4.092697-19.581523-4.538632-26.858529-3.79871-60.1088l0.366658-15.108955 0.188284-5.638607c1.024-27.558813 3.835045-59.636439 8.429832-96.242787l0.974452-7.637058 2.920051-118.3744z m485.940852 5.077058H211.769806l-2.807741 113.799433-0.036336 0.518606-0.974452 7.597419c-4.888774 38.938426-7.749368 72.664361-8.575174 101.174504l-0.429419 17.781264c-0.660645 31.255123-0.1024 37.475097 4.112516 57.317574l1.400568 6.47102c6.523871 28.572903 20.790503 44.098065 43.031122 44.098064 4.90529 0 10.068232-0.21471 16.4864-0.654039l3.319742-0.237832 14.04862-1.10658c23.145703-1.734194 33.725935-1.522787 44.31938 1.876232l2.692129 0.898477c9.090477 2.920052 16.925729 2.982813 26.733007 1.215587l5.744309-1.129703 1.915871-0.356748a27.354013 27.354013 0 0 1 3.369291-0.389781l0.733316-0.016516 165.69311 0.099097c1.215587 0 2.477419 0.132129 4.003509 0.396387l0.948026 0.171768 6.457806 1.337806c9.787458 1.872929 17.840723 1.727587 28.513446-1.661523 11.924645-3.785497 22.551123-4.119123 46.175793-2.388232l13.239329 1.030607 6.325678 0.432722c5.199277 0.320413 9.678452 0.482271 13.929703 0.482271 22.676645 0 37.048981-16.007432 43.404387-45.551484 2.348594-10.936981 3.732645-19.637677 4.49569-28.219458l0.274168-3.399019c0.545032-7.4752 0.663948-13.850426 0.449239-27.387045l-0.369962-18.332904-0.158554-5.027509c-0.792774-20.932542-3.392413-51.900284-7.79231-92.860284l-1.734194-15.829058-0.026425-0.42942-2.758194-111.721703z" fill="#4C3030" p-id="1348"></path><path d="M442.949368 630.572594c17.143742 0 31.040413 19.300748 31.040413 43.107096 0 23.809652-13.896671 43.107097-31.040413 43.107097s-31.03711-19.297445-31.03711-43.107097c0-23.806348 13.896671-43.107097 31.03711-43.107096z m0-89.669368c22.858323 0 41.386116 14.319484 41.386116 31.978529 0 17.662348-18.531097 31.981832-41.386116 31.981832-22.858323 0-41.382813-14.319484-41.382813-31.981832 0-17.659045 18.527794-31.975226 41.382813-31.975226z" fill="#FACB62" p-id="1349"></path><path d="M442.949368 627.269368c19.244594 0 34.343639 20.968877 34.343638 46.410322 0 25.444748-15.095742 46.410323-34.343638 46.410323-19.244594 0-34.340335-20.965574-34.340336-46.410323 0-25.441445 15.095742-46.410323 34.340336-46.410322z m0 6.606451c-15.039587 0-27.733884 17.629316-27.733884 39.803871 0 22.174555 12.694297 39.803871 27.733884 39.803871 15.04289 0 27.737187-17.629316 27.737187-39.803871 0-22.174555-12.694297-39.803871-27.737187-39.803871z m0-96.275819c24.523148 0 44.689342 15.584619 44.689342 35.281755 0 19.700439-20.166194 35.285058-44.689342 35.285058-24.519845 0-44.686039-15.584619-44.686039-35.285058 0-19.697135 20.166194-35.278452 44.686039-35.278452z m0 6.606452c-21.190194 0-38.079587 13.051045-38.079587 28.675303 0 15.624258 16.889394 28.678606 38.079587 28.678606 21.193497 0 38.08289-13.054348 38.08289-28.678606s-16.889394-28.672-38.08289-28.672z" fill="#4C3030" p-id="1350"></path><path d="M489.594219 570.249084c28.27231-7.779097 48.293161 12.165781 59.154168 23.627974 10.857703 11.462194 21.702194 28.249187 51.982865 25.018632 20.186013-2.153703 37.382606-15.809239 51.586477-40.973213-23.502452 59.989884-54.404129 93.943742-92.711639 101.851665-57.45631 11.865187-102.997884-20.0704-108.633187-48.583845-5.638606-28.513445 10.345703-53.165419 38.621316-60.944516z m-79.492129 0c28.275613 7.775794 44.259923 32.427768 38.621316 60.941213-5.635303 28.513445-51.176877 60.449032-108.633187 48.583845-38.30751-7.911226-69.209187-41.861781-92.711638-101.851665 14.203871 25.163974 31.397161 38.81951 51.583174 40.973213 30.280671 3.230555 41.125161-13.559742 51.986168-25.018632 10.861006-11.462194 30.881858-31.407071 59.154167-23.627974z" fill="#FFFFFF" p-id="1351"></path><path d="M652.317729 577.922477c-23.502452 59.989884-54.404129 93.943742-92.711639 101.851665-54.338065 11.221058-98.023226-16.734142-107.368051-43.91969 17.847329 20.506426 54.288516 36.318968 97.458374 27.403561 24.718039-5.103484 46.350865-21.051458 64.905084-47.837316 14.309574-5.810374 26.881652-18.309781 37.716232-37.49822z m-220.777703 3.171097c14.342606 11.693419 21.170374 29.927226 17.18338 50.096723-5.635303 28.513445-51.176877 60.449032-108.633187 48.583845-24.509935-5.060542-45.990813-20.7872-64.442632-47.170065 15.280723 16.539252 32.355097 26.756129 51.229729 30.653936 57.45631 11.865187 102.997884-20.0704 108.633187-48.583845 2.421265-12.251665 0.852232-23.786529-3.970477-33.583897z m-184.161445-3.171097c1.453419 2.56991 2.936568 5.020903 4.446142 7.356284-0.865445-0.858839-1.720981-1.744103-2.573213-2.665703a369.96129 369.96129 0 0 1-1.872929-4.690581z" fill="#F9E5E5" p-id="1352"></path><path d="M370.869677 569.059923c12.770271-7.029265 26.448929-9.199484 41.045884-5.182762 17.358452 4.776465 30.577961 15.340181 37.963974 29.134452 7.220852-13.493677 20.030761-23.895535 36.830968-28.814039l1.129703-0.320413 1.410478-0.369961c14.068439-3.501419 27.278039-1.248619 39.635406 5.549419 8.48929 4.674065 15.059406 10.279639 23.333987 18.891149l1.618581 1.701161 6.771613 7.425652 0.825806 0.872051c11.197935 11.756181 21.074581 16.251871 38.594891 14.382245 17.810994-1.902658 33.293213-14.197265 46.532542-37.656774 4.036542-7.148181 14.897548-1.985239 11.904825 5.658426-24.235768 61.866116-56.643716 97.471587-97.524438 105.914632-47.758039 9.860129-94.581265-9.903071-111.070968-39.374451-16.479794 29.471381-63.303019 49.234581-111.057755 39.374451-40.880723-8.443045-73.291974-44.048516-97.527742-105.914632-2.992723-7.643665 7.868284-12.806606 11.904826-5.655123 13.239329 23.452903 28.721548 35.750813 46.532542 37.653471 17.523613 1.869626 27.393652-2.626065 38.598194-14.382245l1.631793-1.757316 5.962323-6.540387 1.61858-1.701161c8.274581-8.61151 14.848-14.217084 23.333987-18.887845z m120.475252 7.55778c-21.101006 5.803768-34.132232 21.860748-34.855639 41.610736 0.033032 1.123097 0.033032 2.259406 0 3.399019 0.089187 2.708645 0.406297 5.470142 0.964542 8.281187 2.44769 12.393703 14.213781 25.851045 31.459923 34.858942 19.707045 10.292852 44.065032 13.761239 69.357832 8.535536 25.656155-5.298374 48.045419-23.442994 67.06209-54.770788l1.03391-1.72098-1.460026 0.878658a58.292026 58.292026 0 0 1-23.476026 7.775793c-22.115097 2.358503-35.754116-3.914323-49.588025-18.432l-1.407175-1.506271c-1.370839-1.496361-4.356955-4.806194-5.856619-6.434683l-1.635097-1.727587-1.988542-2.038091c-16.816723-16.935639-30.93471-23.84929-49.611148-18.709471z m-82.93409 0c-18.309781-5.037419-32.239484 1.506271-48.623484 17.72511l-1.978632 1.991845-2.024878 2.107458-6.969806 7.637058-0.901781 0.957936c-13.83391 14.514374-27.472929 20.7872-49.588026 18.432a58.292026 58.292026 0 0 1-23.476026-7.779097l-1.460025-0.878658 1.033909 1.717677c19.016671 31.331097 41.405935 49.475716 67.062091 54.774091 25.296103 5.225703 49.650787 1.757316 69.357832-8.535536 17.246142-9.007897 29.012232-22.465239 31.463226-34.858942 0.551639-2.807742 0.872052-5.565935 0.964542-8.267974-0.033032-1.123097-0.033032-2.236284-0.006607-3.342865-0.687071-19.783019-13.728206-35.869729-34.852335-41.680103z" fill="#4C3030" p-id="1353"></path><path d="M637.522581 512.066065c25.537239 0 46.245161 13.312 46.245161 29.729032s-20.707923 29.729032-46.245161 29.729032c-25.543845 0-46.245161-13.312-46.245162-29.729032s20.701316-29.729032 46.245162-29.729032z m-376.567742 0c25.537239 0 46.245161 13.312 46.245161 29.729032s-20.707923 29.729032-46.245161 29.729032c-25.543845 0-46.245161-13.312-46.245162-29.729032s20.701316-29.729032 46.245162-29.729032z" fill="#C40000" p-id="1354"></path><path d="M160.1536 244.313187c76.99489-68.244645 137.949316-106.912206 289.692903-106.912206 151.74689 0 213.940026 39.764232 289.692903 106.912206 50.506323 44.765316 49.3568 98.792877-3.445264 162.08929C646.424774 342.02591 551.011097 309.842581 449.846503 309.842581c-101.16129 0-194.279226 32.186632-279.3472 96.5632-58.225961-62.563097-61.674529-116.593961-10.345703-162.089291z" fill="#FFFFFF" p-id="1355"></path><path d="M449.846503 251.210323c151.74689 0 213.940026 39.760929 289.692903 106.908903 6.897135 6.110968 12.826426 12.393703 17.794478 18.848206-5.780645 9.579355-12.859458 19.389935-21.239742 29.435045C646.424774 342.02591 551.011097 309.842581 449.846503 309.842581c-101.16129 0-194.279226 32.186632-279.3472 96.5632-10.299458-11.065806-18.884542-21.867355-25.758555-32.401342 4.426323-5.404077 9.566142-10.699148 15.412852-15.88191 76.99489-68.244645 137.949316-106.908903 289.692903-106.908903z" fill="#F9E5E5" p-id="1356"></path><path d="M449.846503 303.232826c-100.712052 0-193.608671 31.463226-278.50818 94.29058C119.315819 339.419665 117.439587 291.000981 164.533677 249.254813l4.568362-4.026632 4.634426-4.036542c44.355716-38.429729 76.833032-59.557161 117.578322-74.428284a6.606452 6.606452 0 0 0-4.528722-12.413523c-45.359897 16.555768-80.697806 40.418271-131.015846 85.018426-54.38431 48.203974-50.664877 106.462968 9.893162 171.536516l4.062967 4.366865 4.759949-3.600516c83.934968-63.521032 175.658942-95.225394 275.360206-95.225394 99.74751 0 193.823381 31.73409 282.392774 95.32449l4.991175 3.580697 3.937445-4.717006c54.932645-65.846503 56.168052-123.923819 2.75489-171.265652l-4.650942-4.102606-4.647639-4.049755c-40.682529-35.23551-71.580903-56.085471-108.890838-71.637058-46.737342-19.482426-101.957368-28.78431-175.886865-28.78431-18.663226 0-36.061316 0.581368-52.366038 1.7408a6.606452 6.606452 0 0 0 0.941419 13.179871c15.981006-1.13631 33.068594-1.707768 51.424619-1.707768 72.297703 0 125.819871 9.017806 170.8032 27.766916 38.505703 16.050374 70.107665 38.125832 114.509626 77.480465 45.895019 40.679226 46.549058 88.602426 1.11649 146.432l-1.390658 1.75071c-89.299406-62.767897-184.362942-94.208-285.035355-94.208z" fill="#4C3030" p-id="1357"></path><path d="M560.207277 379.104619c45.551484 0 82.481548 36.926761 82.481549 82.478246 0 45.551484-36.930065 82.481548-82.481549 82.481548-45.207948 0-81.923303-36.378426-82.471638-81.457548-4.211613-15.855484-16.037161-27.109574-29.61342-27.109575-13.60929 0-25.454658 11.306942-29.643148 27.218581 0.029729 0.769652 0.039639 1.539303 0.039639 2.315561 0 45.551484-36.930065 82.481548-82.481549 82.481549s-82.478245-36.930065-82.478245-82.481549 36.930065-82.481548 82.481549-82.481548c38.40991 0 70.689032 26.260645 79.865393 61.803355 7.491716-11.406039 19.066219-18.762323 32.216361-18.762323 12.8 0 24.103639 6.969806 31.611871 17.853936 8.258065-36.827665 41.15489-64.340232 80.473187-64.340233z m-224.166812 16.661471c-38.254658 0-69.268645 31.010684-69.268646 69.265342 0 38.254658 31.013987 69.268645 69.268646 69.268645 38.251355 0 69.265342-31.013987 69.265341-69.268645 0-38.251355-31.010684-69.268645-69.268645-69.268645z m224.166812-3.448567c-38.251355 0-69.268645 31.010684-69.268645 69.265342 0 38.251355 31.01729 69.268645 69.268645 69.268645 38.254658 0 69.268645-31.01729 69.268646-69.268645 0-38.254658-31.013987-69.268645-69.268646-69.268646z m-208.456671 38.515612c25.659458 0 46.459871 20.803716 46.459871 46.459871a6.606452 6.606452 0 1 1-13.212903 0c0-18.359329-14.887639-33.243665-33.246968-33.243664-18.362632 0-33.246968 14.884335-33.246967 33.243664a6.606452 6.606452 0 1 1-13.212904 0c0-25.656155 20.800413-46.456568 46.459871-46.456567z m192.743226 0c25.662761 0 46.459871 20.803716 46.459871 46.459871a6.606452 6.606452 0 1 1-13.212903 0c0-18.359329-14.884335-33.243665-33.243665-33.243664-18.362632 0-33.246968 14.884335-33.246967 33.243664a6.606452 6.606452 0 1 1-13.212903 0c0-25.656155 20.800413-46.456568 46.45987-46.456567z" fill="#4C3030" p-id="1358"></path></svg>